<svg width="16" height="16" viewBox="0 0 16 16" fill="none" xmlns="http://www.w3.org/2000/svg">
<g clip-path="url(#clip0_64_36)">
<path d="M15.82 11.6156L12.82 9.11563C12.671 8.99063 12.463 8.96563 12.288 9.04663C12.112 9.12963 12 9.30563 12 9.49963V10.9996H11.163C10.469 10.9996 9.835 10.6476 9.467 10.0596L6.229 4.87963C5.494 3.70263 4.226 2.99963 2.837 2.99963H0V4.99963H2.837C3.531 4.99963 4.165 5.35163 4.533 5.93963L7.771 11.1196C8.507 12.2966 9.775 12.9996 11.163 12.9996H12V14.4996C12 14.6936 12.112 14.8696 12.288 14.9526C12.355 14.9836 12.428 14.9996 12.5 14.9996C12.615 14.9996 12.729 14.9606 12.82 14.8836L15.82 12.3836C15.935 12.2886 16 12.1476 16 11.9996C16 11.8516 15.935 11.7106 15.82 11.6156Z" fill="white"/>
<path d="M15.8201 3.61562L12.8201 1.11562C12.6711 0.991623 12.4631 0.965623 12.2881 1.04762C12.1121 1.12862 12.0001 1.30562 12.0001 1.49962V2.99962H11.1631C9.77409 2.99962 8.50609 3.70262 7.77109 4.87962L7.59009 5.16962L8.76909 7.05662L9.46709 5.93962C9.83509 5.35162 10.4691 4.99962 11.1631 4.99962H12.0001V6.49962C12.0001 6.69362 12.1121 6.87062 12.2881 6.95262C12.3551 6.98362 12.4281 6.99962 12.5001 6.99962C12.6151 6.99962 12.7291 6.95962 12.8201 6.88362L15.8201 4.38362C15.9351 4.28862 16.0001 4.14762 16.0001 3.99962C16.0001 3.85162 15.9351 3.71062 15.8201 3.61562Z" fill="white"/>
<path d="M5.231 8.94263L4.534 10.0596C4.166 10.6476 3.531 10.9996 2.837 10.9996H0V12.9996H2.837C4.225 12.9996 5.493 12.2966 6.229 11.1196L6.41 10.8296L5.231 8.94263Z" fill="white"/>
</g>
<defs>
<clipPath id="clip0_64_36">
<rect width="16" height="16" fill="white"/>
</clipPath>
</defs>
</svg>
