<svg width="50" height="50" viewBox="0 0 40 40" fill="none" xmlns="http://www.w3.org/2000/svg">
<g clip-path="url(#clip0_67_128)">
<path d="M37.3405 20.5181C37.1796 20.1888 37.1796 19.8112 37.3405 19.482L38.8324 16.43C39.663 14.7307 39.0049 12.7054 37.3341 11.8189L34.3334 10.2267C34.0096 10.055 33.7877 9.74936 33.7243 9.3885L33.1374 6.0425C32.8106 4.17954 31.0874 2.92767 29.215 3.19259L25.8515 3.66837C25.4884 3.71962 25.1294 3.6029 24.8661 3.34813L22.4246 0.98627C21.0652 -0.32888 18.9355 -0.328958 17.5761 0.98627L15.1346 3.34837C14.8711 3.60321 14.5121 3.7197 14.1492 3.6686L10.7857 3.19282C8.91265 2.92775 7.19 4.17977 6.86321 6.04273L6.27634 9.38858C6.21298 9.74951 5.99102 10.0551 5.66736 10.2269L2.66659 11.819C0.99582 12.7054 0.337699 14.731 1.16832 16.4303L2.66011 19.4821C2.82104 19.8114 2.82104 20.1891 2.66011 20.5183L1.16824 23.5702C0.33762 25.2694 0.995742 27.2948 2.66651 28.1813L5.66728 29.7735C5.99103 29.9452 6.21298 30.2508 6.27634 30.6117L6.86321 33.9577C7.16071 35.6536 8.61492 36.843 10.2862 36.8428C10.4508 36.8428 10.6179 36.8313 10.7858 36.8075L14.1493 36.3317C14.512 36.2803 14.8712 36.3972 15.1346 36.652L17.5761 39.0138C18.256 39.6715 19.128 40.0002 20.0003 40.0002C20.8724 40.0001 21.745 39.6713 22.4245 39.0138L24.8661 36.652C25.1295 36.3972 25.4886 36.2808 25.8515 36.3317L29.215 36.8075C31.0882 37.0725 32.8106 35.8206 33.1374 33.9576L33.7244 30.6118C33.7877 30.2508 34.0097 29.9453 34.3334 29.7735L37.3341 28.1813C39.0049 27.2949 39.663 25.2694 38.8324 23.5701L37.3405 20.5181ZM36.2528 26.1433L33.252 27.7354C32.2953 28.2432 31.6392 29.1461 31.452 30.213L30.8652 33.5589C30.7546 34.1892 30.1719 34.6126 29.5381 34.5232L26.1746 34.0474C25.1019 33.8954 24.0405 34.2407 23.262 34.9937L20.8205 37.3555C20.3606 37.8003 19.6401 37.8003 19.1801 37.3555L16.7386 34.9936C16.0807 34.3571 15.2205 34.0122 14.3225 34.0122C14.158 34.0122 13.9921 34.0238 13.8261 34.0473L10.4626 34.5231C9.82928 34.6126 9.24608 34.1892 9.13546 33.5589L8.54851 30.2129C8.36132 29.146 7.70523 28.2429 6.74844 27.7354L3.74768 26.1432C3.18237 25.8433 2.95971 25.158 3.24073 24.5831L4.73259 21.5312C5.20822 20.5581 5.20822 19.442 4.73259 18.4688L3.24073 15.4169C2.95971 14.842 3.18237 14.1568 3.74768 13.8568L6.74844 12.2647C7.70516 11.7569 8.36132 10.854 8.54843 9.78709L9.1353 6.44117C9.24593 5.81086 9.82858 5.38742 10.4624 5.47695L13.8259 5.95273C14.8982 6.10453 15.96 5.75945 16.7385 5.00641L19.18 2.64454C19.6399 2.1997 20.3604 2.1997 20.8204 2.64454L23.2619 5.00641C24.0404 5.75953 25.102 6.10453 26.1744 5.95273L29.5379 5.47695C30.1713 5.38734 30.7545 5.81086 30.865 6.44117L31.4519 9.78717C31.6391 10.854 32.2952 11.7571 33.252 12.2647L36.2527 13.8568C36.818 14.1568 37.0407 14.842 36.7597 15.4169L35.2678 18.4688C34.7922 19.4418 34.7922 20.5581 35.2678 21.5311L36.7597 24.583C37.0408 25.158 36.8181 25.8433 36.2528 26.1433Z" fill="#37A4E9"/>
<path d="M28.4282 11.5715C27.9778 11.121 27.2474 11.121 26.7969 11.5715L11.5712 26.7972C11.1208 27.2477 11.1208 27.978 11.5712 28.4285C11.7965 28.6537 12.0917 28.7664 12.3869 28.7664C12.682 28.7664 12.9773 28.6538 13.2025 28.4285L28.4281 13.2029C28.8788 12.7523 28.8787 12.022 28.4282 11.5715Z" fill="#37A4E9"/>
<path d="M15.3863 9.61844C13.0541 9.61844 11.1567 11.5158 11.1567 13.848C11.1567 16.1802 13.0541 18.0776 15.3863 18.0776C17.7185 18.0776 19.6159 16.1802 19.6159 13.848C19.6159 11.5158 17.7185 9.61844 15.3863 9.61844ZM15.3863 15.7705C14.3263 15.7705 13.4638 14.9081 13.4638 13.8479C13.4638 12.7879 14.3263 11.9255 15.3863 11.9255C16.4464 11.9255 17.3089 12.7879 17.3089 13.8479C17.3088 14.9081 16.4464 15.7705 15.3863 15.7705Z" fill="#37A4E9"/>
<path d="M24.6143 21.9225C22.2822 21.9225 20.3848 23.8199 20.3848 26.1521C20.3848 28.4843 22.2822 30.3817 24.6143 30.3817C26.9465 30.3817 28.8439 28.4843 28.8439 26.1521C28.8439 23.8199 26.9465 21.9225 24.6143 21.9225ZM24.6143 28.0746C23.5543 28.0746 22.6918 27.2122 22.6918 26.1521C22.6918 25.092 23.5542 24.2296 24.6143 24.2296C25.6744 24.2296 26.5368 25.092 26.5368 26.1521C26.5368 27.2122 25.6744 28.0746 24.6143 28.0746Z" fill="#37A4E9"/>
</g>
<defs>
<clipPath id="clip0_67_128">
<rect width="40" height="40" fill="white"/>
</clipPath>
</defs>
</svg>
