<svg width="400" height="400" viewBox="0 0 400 400" fill="none" xmlns="http://www.w3.org/2000/svg">
<path d="M390.997 199.986C390.997 305.466 305.494 390.973 200.022 390.973C94.5496 390.973 9.04663 305.466 9.04663 199.986C9.04663 94.5071 94.5496 9 200.022 9C305.494 9 390.997 94.5071 390.997 199.986Z" stroke="white" stroke-width="18" stroke-linejoin="round"/>
<path d="M202.997 186.915C202.97 186.918 202.943 186.921 202.916 186.924C177.42 189.735 151.928 183.879 128.207 178.429C124.804 177.647 121.437 176.874 118.111 176.136C90.9017 170.094 65.8246 166.15 41.1243 174.324C29.8831 178.399 19.1914 183.84 9.2889 190.523C9.11307 193.726 9.00005 196.89 9 200.035L202.997 186.915ZM202.997 186.915C231.841 183.471 260.332 169.341 287.051 156.09L287.856 155.691C315.505 141.98 341.327 129.287 366.714 126.259M202.997 186.915L366.714 126.259M366.714 126.259C369.787 125.936 372.871 125.746 375.958 125.689C386.304 150.193 391.426 176.607 390.972 203.243C390.486 231.776 383.613 259.837 370.859 285.364C358.105 310.892 339.794 333.237 317.27 350.758C294.747 368.279 268.585 380.53 240.706 386.612C212.826 392.693 183.939 392.451 156.166 385.902C128.393 379.353 102.44 366.663 80.2139 348.767C57.9882 330.87 40.0546 308.22 27.731 282.482C15.4077 256.745 9.00728 228.573 9 200.037L366.714 126.259Z" stroke="white" stroke-width="18" stroke-linejoin="round"/>
<path d="M200.026 399.998C245.698 400.012 289.999 384.396 325.567 355.744C361.135 327.092 385.827 287.13 395.539 242.501C378.369 229.039 361.224 217.759 344.079 213.623C302.376 203.963 260.691 235.692 218.993 267.43C211.243 273.33 203.491 279.23 195.74 284.864L200.026 399.998ZM200.026 399.998C173.255 400.012 146.755 394.633 122.108 384.18C101.426 375.409 82.4051 363.216 65.8306 348.142L200.026 399.998ZM78.4247 347.164C107.645 343.686 137.251 331.953 164.819 315.793C176.93 308.71 188.993 300.758 200.977 292.183L201.031 292.144C209.158 286.237 217.11 280.183 224.959 274.207C241.707 261.456 257.99 249.059 274.52 239.197C298.592 224.836 320.737 217.47 342.009 222.382C355.773 225.713 370.134 234.462 385.461 246.092C375.41 286.49 352.419 322.556 319.921 348.735C285.953 376.098 243.645 391.012 200.029 390.998L200.026 399.989L200.021 390.998C174.459 391.012 149.156 385.875 125.622 375.894C108.542 368.65 92.6472 358.963 78.4247 347.164Z" stroke="white" stroke-width="18" stroke-linejoin="round"/>
<path d="M200.029 390.998H200.021C174.459 391.012 149.156 385.875 125.622 375.894C108.542 368.65 92.6472 358.963 78.4246 347.164C107.643 343.686 137.248 331.954 164.815 315.795C176.928 308.712 188.992 300.759 200.977 292.183L201.031 292.144C209.158 286.237 217.11 280.183 224.959 274.207C241.707 261.456 257.99 249.059 274.52 239.197C298.592 224.836 320.736 217.47 342.008 222.382C355.772 225.712 370.133 234.462 385.461 246.092C375.41 286.49 352.419 322.556 319.921 348.735C285.953 376.098 243.645 391.012 200.029 390.998Z" stroke="white" stroke-width="18" stroke-linejoin="round"/>
<path d="M213.776 356.316C229.42 365.715 246.35 374.355 263.663 380.091C245.984 386.337 227.436 389.96 208.611 390.803C181.119 392.034 153.686 387.308 128.191 376.947C102.696 366.586 79.7418 350.836 60.9016 330.775C43.7351 312.497 30.3537 291.034 21.4973 267.625C33.295 261.699 46.7368 259.656 59.8699 261.901C59.9253 261.91 59.9808 261.919 60.0364 261.927C74.3582 264.1 89.1854 270.806 104.834 280.337C118.893 288.899 133.034 299.366 147.685 310.208C149.347 311.439 151.017 312.675 152.693 313.913C154.616 315.333 156.614 316.816 158.682 318.351C173.968 329.697 193.072 343.877 213.776 356.316Z" stroke="white" stroke-width="18" stroke-linejoin="round"/>
<path d="M213.776 356.316C229.42 365.715 246.35 374.355 263.663 380.091C245.984 386.337 227.436 389.96 208.611 390.803C181.119 392.034 153.686 387.308 128.191 376.947C102.696 366.586 79.7418 350.836 60.9015 330.775C43.7351 312.497 30.3537 291.034 21.4973 267.625C33.295 261.699 46.7368 259.656 59.8699 261.901C59.9253 261.91 59.9808 261.919 60.0364 261.927C74.3582 264.1 89.1854 270.806 104.834 280.337C118.893 288.899 133.034 299.366 147.685 310.208C149.347 311.439 151.017 312.675 152.693 313.913C154.616 315.333 156.614 316.816 158.682 318.351C173.968 329.697 193.071 343.877 213.776 356.316Z" stroke="white" stroke-width="18" stroke-linejoin="round"/>
</svg>


