<svg width="57" height="52" viewBox="0 0 57 52" fill="none" xmlns="http://www.w3.org/2000/svg">
<g clip-path="url(#clip0_90_195)">
<path d="M3.75932 2.25794C2.45605 2.68571 1.49229 3.48156 0.868037 4.63554L0.517578 5.29212V19.9656V34.6391L0.868037 35.2957C1.50324 36.4696 2.467 37.2555 3.80313 37.6733C4.41643 37.8623 4.72308 37.8723 14.1964 37.8723H23.9545L24.1626 38.6482C24.2721 39.066 24.5569 39.8619 24.7978 40.409C25.6849 42.4583 26.8896 44.0699 28.7514 45.7014C30.9965 47.6612 33.6797 48.9545 36.8229 49.5713C38.159 49.8399 42.0579 49.8399 43.394 49.5713C46.7562 48.9047 49.2971 47.6413 51.7284 45.4428C54.1159 43.2741 55.4629 41.0656 56.2296 38.0812C56.5691 36.7183 56.6238 33.893 56.3391 32.351C55.9448 30.252 55.1125 28.3718 53.7873 26.5314C53.1083 25.5963 51.2355 23.7459 50.4141 23.1988L49.9761 22.9003L49.9432 14.0962L49.9104 5.29212L49.538 4.59575C49.0452 3.68052 48.18 2.89462 47.1724 2.44696L46.4058 2.10872L25.3782 2.08882C4.84355 2.06893 4.33977 2.06893 3.75932 2.25794ZM45.8034 5.31202C46.4167 5.65025 46.5919 6.03823 46.6577 7.10268L46.7124 8.02786H25.214H3.71551L3.77027 7.09273C3.84694 5.82932 4.17549 5.34186 5.11735 5.13295C5.30353 5.09316 14.4374 5.07326 25.433 5.07326L45.4201 5.09316L45.8034 5.31202ZM46.6796 12.5045V13.9967H25.214H3.74837V12.5045V11.0123H25.214H46.6796V12.5045ZM46.6796 19.0603V21.1494L46.0225 20.9007C44.1168 20.2044 42.0798 19.9159 39.4514 19.9955C36.1549 20.0949 33.625 20.8212 30.898 22.4626C29.518 23.2982 27.3496 25.268 26.4296 26.5214C24.7868 28.7697 23.8669 31.217 23.7136 33.7239L23.6479 34.8978L14.3278 34.8679L5.00783 34.8381L4.62452 34.6192C4.41643 34.4998 4.14264 34.2511 4.02217 34.0721C3.80313 33.7537 3.80313 33.5448 3.77027 25.3575L3.73742 16.9812H25.214H46.6796V19.0603ZM42.4083 23.2087C47.2052 23.9847 51.2903 27.2974 52.6374 31.5154C53.0645 32.8783 53.174 33.7338 53.1083 35.3554C53.0754 36.4994 52.9988 37.0466 52.7797 37.8026C51.8598 40.9761 49.5928 43.6322 46.4058 45.2737C43.4488 46.8057 39.6156 47.1638 36.1877 46.2187C35.0487 45.9004 33.3621 45.1045 32.3327 44.3982C29.9123 42.7468 28.2257 40.4787 27.4372 37.8026C27.1634 36.9073 27.1415 36.6785 27.1415 34.8878C27.1415 33.0971 27.1634 32.8683 27.4372 31.973C28.0724 29.8441 29.2004 28.0634 30.898 26.5214C33.9645 23.736 38.159 22.5322 42.4083 23.2087Z" fill="#7C73E0"/>
<path d="M7.75651 23.1391C7.25273 23.4475 7.03369 23.8256 7.03369 24.4424C7.03369 25.0591 7.25273 25.4372 7.75651 25.7456C8.05221 25.9246 8.36982 25.9346 13.7143 25.9346C19.0588 25.9346 19.3764 25.9246 19.6721 25.7456C20.1759 25.4372 20.3949 25.0591 20.3949 24.4424C20.3949 23.8256 20.1759 23.4475 19.6721 23.1391C19.3764 22.9601 19.0588 22.9501 13.7143 22.9501C8.36982 22.9501 8.05221 22.9601 7.75651 23.1391Z" fill="#7C73E0"/>
<path d="M7.75651 29.108C7.25273 29.4164 7.03369 29.7944 7.03369 30.4112C7.03369 31.028 7.25273 31.406 7.75651 31.7144C8.05221 31.8935 8.36982 31.9034 13.7143 31.9034C19.0588 31.9034 19.3764 31.8935 19.6721 31.7144C20.1759 31.406 20.3949 31.028 20.3949 30.4112C20.3949 29.7944 20.1759 29.4164 19.6721 29.108C19.3764 28.9289 19.0588 28.919 13.7143 28.919C8.36982 28.919 8.05221 28.9289 7.75651 29.108Z" fill="#7C73E0"/>
<path d="M45.8034 30.5703C45.65 30.6599 43.9416 32.172 42.0031 33.9328L38.4656 37.1261L36.5819 35.425C35.5415 34.4899 34.5668 33.6443 34.4135 33.5548C34.0301 33.326 33.0226 33.3458 32.6174 33.5846C32.1136 33.893 31.8945 34.271 31.8945 34.8878C31.8945 35.236 31.9602 35.5344 32.0698 35.6837C32.3326 36.0418 36.9105 40.23 37.4143 40.5682C37.7647 40.8069 37.9509 40.8567 38.4547 40.8567C38.8489 40.8567 39.1775 40.797 39.3418 40.6975C39.736 40.4588 47.6323 33.316 48.0047 32.8584C48.2675 32.54 48.3223 32.3709 48.3223 31.9133C48.3223 31.2866 48.1142 30.9086 47.5995 30.6002C47.1942 30.3614 46.1867 30.3415 45.8034 30.5703Z" fill="#7C73E0"/>
</g>
<defs>
<clipPath id="clip0_90_195">
<rect width="56.0734" height="50.9344" fill="white" transform="translate(0.462891 0.467285)"/>
</clipPath>
</defs>
</svg>
