<?xml version="1.0" standalone="no"?>
<!DOCTYPE svg PUBLIC "-//W3C//DTD SVG 20010904//EN"
 "http://www.w3.org/TR/2001/REC-SVG-20010904/DTD/svg10.dtd">
<svg version="1.0" xmlns="http://www.w3.org/2000/svg"
 width="24px" height="24px" viewBox="0 0 512.000000 512.000000"
 preserveAspectRatio="xMidYMid meet">
<metadata>
Created by potrace 1.16, written by Peter Selinger 2001-2019
</metadata>
<g transform="translate(0.000000,512.000000) scale(0.100000,-0.100000)"
fill="#2FA3EC" stroke="none">
<path d="M1124 4931 c-110 -56 -296 -224 -480 -437 -177 -203 -378 -482 -449
-623 -30 -61 -35 -80 -35 -142 0 -78 34 -263 75 -402 96 -333 272 -698 503
-1046 391 -590 953 -1152 1543 -1543 347 -231 714 -407 1046 -503 139 -41 324
-75 402 -75 62 0 81 5 142 35 38 20 127 74 196 121 385 259 772 622 865 811
26 54 30 70 26 126 -5 83 -46 164 -113 224 -27 25 -156 116 -285 202 -426 284
-716 438 -889 472 -139 27 -221 -21 -405 -237 -65 -76 -127 -147 -136 -157
-16 -18 -21 -17 -121 23 -345 136 -668 375 -900 665 -135 168 -279 421 -342
600 l-25 71 140 119 c77 66 162 145 189 175 54 60 89 139 89 200 0 105 -110
351 -290 651 -124 206 -344 533 -397 590 -59 64 -140 103 -223 107 -57 3 -73
0 -126 -27z"/>
</g>
</svg>
