<svg width="57" height="52" viewBox="0 0 57 52" fill="none" xmlns="http://www.w3.org/2000/svg">
<g clip-path="url(#clip0_90_176)">
<path d="M55.9441 25.2152C55.9252 25.1709 55.9045 25.1274 55.8819 25.0845C53.3953 20.3934 49.5254 16.4253 44.6911 13.609C39.7239 10.7153 33.9654 9.18591 28.0385 9.18591C22.1116 9.18591 16.3528 10.7155 11.3856 13.6095C6.56896 16.4154 2.70993 20.3651 0.222307 25.0337C-0.0564846 25.5188 -0.0772126 26.1053 0.193806 26.6167C2.68013 31.3086 6.55005 35.2774 11.3849 38.0941C16.3523 40.9883 22.1111 42.5179 28.0385 42.5179C33.9657 42.5179 39.7244 40.9883 44.6916 38.0944C49.5265 35.2779 53.3961 31.3093 55.8827 26.6179C56.1154 26.1785 56.1371 25.6699 55.9441 25.2152ZM28.0385 38.9873C18.0417 38.9873 8.75628 33.8591 4.12047 25.8516C8.75628 17.844 18.0417 12.716 28.0385 12.716C38.0351 12.716 47.3207 17.8445 51.9566 25.8518C47.3205 33.8587 38.0348 38.9873 28.0385 38.9873Z" fill="#2FA3EC"/>
<path d="M28.0371 18.1046C23.3344 18.1046 19.5083 21.5801 19.5083 25.8519C19.5083 30.1236 23.3344 33.5991 28.0371 33.5991C32.7398 33.5991 36.5659 30.1236 36.5659 25.8519C36.5659 21.5801 32.7398 18.1046 28.0371 18.1046ZM28.0371 30.0688C25.4774 30.0688 23.3948 28.177 23.3948 25.8519C23.3948 23.5268 25.4774 21.635 28.0371 21.635C30.5967 21.635 32.6794 23.5268 32.6794 25.8519C32.6794 28.177 30.5967 30.0688 28.0371 30.0688Z" fill="#2FA3EC"/>
</g>
<defs>
<clipPath id="clip0_90_176">
<rect width="56.0734" height="50.9351" fill="white" transform="translate(0 0.384277)"/>
</clipPath>
</defs>
</svg>
