<svg width="47" height="47" viewBox="0 0 47 47" fill="none" xmlns="http://www.w3.org/2000/svg">
<g clip-path="url(#clip0_90_207)">
<path d="M40.0711 30.7276C37.566 28.2226 34.5843 26.3681 31.331 25.2455C34.8154 22.8457 37.1045 18.8294 37.1045 14.288C37.1045 6.95608 31.1395 0.991089 23.8076 0.991089C16.4757 0.991089 10.5107 6.95608 10.5107 14.288C10.5107 18.8294 12.7999 22.8457 16.2843 25.2455C13.031 26.3681 10.0493 28.2226 7.54419 30.7276C3.20007 35.0718 0.807617 40.8476 0.807617 46.9911H4.40137C4.40137 36.2904 13.107 27.5848 23.8076 27.5848C34.5083 27.5848 43.2139 36.2904 43.2139 46.9911H46.8076C46.8076 40.8476 44.4152 35.0718 40.0711 30.7276ZM23.8076 23.9911C18.4573 23.9911 14.1045 19.6383 14.1045 14.288C14.1045 8.93759 18.4573 4.58484 23.8076 4.58484C29.1579 4.58484 33.5107 8.93759 33.5107 14.288C33.5107 19.6383 29.1579 23.9911 23.8076 23.9911Z" fill="white"/>
</g>
<defs>
<clipPath id="clip0_90_207">
<rect width="46" height="46" fill="white" transform="translate(0.807617 0.991089)"/>
</clipPath>
</defs>
</svg>
