<svg width="93" height="101" viewBox="0 0 93 101" fill="none" xmlns="http://www.w3.org/2000/svg">
<path d="M53.0952 54.3183C52.4353 54.8072 51.5 54.3361 51.5 53.5148V45.5H41C36.5817 45.5 33 41.9183 33 37.5V11C33 6.58172 36.5817 3 41 3H82C86.4183 3 90 6.58172 90 11V37.5C90 41.9183 86.4183 45.5 82 45.5H65L53.0952 54.3183Z" fill="url(#paint0_linear_225_6)"/>
<path d="M20 3H13C7.47715 3 3 7.47715 3 13V90.5C3 94.9183 6.58172 98.5 11 98.5H55C59.4183 98.5 63 94.9183 63 90.5V70M45 82H20M51.5 45.5V53.5148C51.5 54.3361 52.4353 54.8072 53.0952 54.3183L65 45.5H82C86.4183 45.5 90 41.9183 90 37.5V11C90 6.58172 86.4183 3 82 3H41C36.5817 3 33 6.58172 33 11V37.5C33 41.9183 36.5817 45.5 41 45.5H51.5Z" stroke="#329FE2" stroke-width="5" stroke-linecap="round" stroke-linejoin="round"/>
<defs>
<linearGradient id="paint0_linear_225_6" x1="90" y1="3" x2="31" y2="58" gradientUnits="userSpaceOnUse">
<stop stop-color="#329FE2" stop-opacity="0.3"/>
<stop offset="1" stop-color="#329FE2" stop-opacity="0"/>
</linearGradient>
</defs>
</svg>
